#define close_hover_width 9
#define close_hover_height 9
static unsigned char close_hover_bits[] = {
   0x00, 0x00, 0xc6, 0x00, 0xee, 0x00, 0x7c, 0x00, 0x38, 0x00, 0x7c, 0x00,
   0xee, 0x00, 0xc6, 0x00, 0x00, 0x00 };
